<svg width="1336" height="692" viewBox="0 0 1336 692" fill="none" xmlns="http://www.w3.org/2000/svg">
<g clip-path="url(#clip0_127_1463)">
<rect width="1336" height="692" fill="#151515"/>
<circle opacity="0.3" cx="104" cy="83" r="30" fill="#2C4025"/>
<circle opacity="0.15" cx="297.5" cy="-21.5" r="50.5" fill="#2C4025"/>
<circle opacity="0.2" cx="354.5" cy="324.5" r="38.5" fill="#2C4025"/>
<circle opacity="0.2" cx="581.5" cy="174.5" r="41.5" fill="#2C4025"/>
<circle opacity="0.2" cx="599.5" cy="328.5" r="17.5" fill="#2C4025"/>
<circle opacity="0.25" cx="638" cy="560" r="30" fill="#2C4025"/>
<circle opacity="0.3" cx="945" cy="163" r="30" fill="#2C4025"/>
<circle opacity="0.25" cx="1117" cy="551" r="21" fill="#2C4025"/>
<circle opacity="0.1" cx="775.5" cy="400.5" r="19.5" fill="#2C4025"/>
<circle opacity="0.1" cx="835.5" cy="3.5" r="19.5" fill="#2C4025"/>
<circle opacity="0.3" cx="277" cy="530" r="21" fill="#2C4025"/>
<circle opacity="0.1" cx="104" cy="669" r="41" fill="#2C4025"/>
<circle opacity="0.15" cx="68" cy="387" r="24" fill="#2C4025"/>
<circle opacity="0.15" cx="1208.5" cy="107.5" r="24.5" fill="#2C4025"/>
<circle opacity="0.2" cx="1015.5" cy="709.5" r="70.5" fill="#2C4025"/>
<circle opacity="0.1" cx="1137.5" cy="303.5" r="39.5" fill="#2C4025"/>
<path d="M516.891 442.106L534.205 452.637L532.807 459.946L510.293 444.632L511.251 439.625L516.891 442.106ZM536.622 440.005L516.622 443.516L510.48 443.653L511.444 438.618L538.015 432.725L536.622 440.005ZM576.264 454.66L558.646 444.16L560.033 436.908L582.978 452.306L582.009 457.37L576.264 454.66ZM556.201 456.936L576.518 453.486L582.791 453.284L581.828 458.319L554.819 464.158L556.201 456.936Z" fill="#245111" fill-opacity="0.3"/>
<path d="M901.49 478.918L907.261 482.428L906.795 484.865L899.291 479.76L899.61 478.091L901.49 478.918ZM908.067 478.218L901.4 479.388L899.353 479.434L899.674 477.755L908.531 475.791L908.067 478.218ZM921.281 483.102L915.408 479.602L915.871 477.185L923.519 482.318L923.196 484.006L921.281 483.102ZM914.593 483.861L921.366 482.711L923.457 482.644L923.135 484.322L914.133 486.269L914.593 483.861Z" fill="#245111" fill-opacity="0.3"/>
<path d="M415.289 610.27L435.086 614.6L436.14 621.966L409.87 614.804L409.148 609.758L415.289 610.27ZM433.264 601.868L415.492 611.691L409.729 613.818L409.003 608.743L432.214 594.531L433.264 601.868ZM475.517 602.836L455.442 598.635L454.396 591.327L481.101 598.426L481.831 603.531L475.517 602.836ZM457.284 611.512L475.376 601.643L481.242 599.412L481.968 604.488L458.326 618.791L457.284 611.512Z" fill="#245111" fill-opacity="0.1"/>
<path d="M173.951 364.856L183.462 368.35L183.482 372.07L170.959 366.732L170.945 364.183L173.951 364.856ZM183.428 361.919L173.955 365.573L170.956 366.234L170.942 363.67L183.408 358.213L183.428 361.919ZM204.291 365.279L194.634 361.83L194.614 358.138L207.358 363.475L207.371 366.053L204.291 365.279ZM194.669 368.333L204.302 364.678L207.36 363.973L207.374 366.537L194.688 372.01L194.669 368.333Z" fill="#245111" fill-opacity="0.2"/>
<path d="M319.922 141.681L326.109 144.393L325.971 146.869L317.855 142.808L317.949 141.112L319.922 141.681ZM326.348 140.112L319.896 142.159L317.873 142.477L317.968 140.77L326.485 137.645L326.348 140.112ZM340.094 143.195L333.808 140.508L333.945 138.051L342.208 142.12L342.112 143.836L340.094 143.195ZM333.567 144.837L340.126 142.796L342.189 142.451L342.094 144.158L333.431 147.285L333.567 144.837Z" fill="#245111" fill-opacity="0.35"/>
<path d="M549.419 28.1245L565.242 34.0238L565.246 40.2249L544.416 31.228L544.413 26.9799L549.419 28.1245ZM565.236 23.306L549.419 29.3208L544.415 30.3979L544.413 26.1254L565.233 17.1292L565.236 23.306ZM599.981 29.0725L583.913 23.2466L583.91 17.0943L605.106 26.091L605.108 30.3879L599.981 29.0725ZM583.919 34.0864L600.005 28.0715L605.106 26.9211L605.109 31.1936L583.923 40.2144L583.919 34.0864Z" fill="#245111" fill-opacity="0.3"/>
<path d="M759.459 271.169L772.957 271.734L774.497 276.45L756.422 274.77L755.368 271.539L759.459 271.169ZM770.296 263.584L759.756 272.079L756.216 274.139L755.156 270.89L768.762 258.886L770.296 263.584ZM798.153 259.358L784.487 258.909L782.96 254.23L801.312 255.82L802.379 259.087L798.153 259.358ZM787.179 267.153L797.923 258.59L801.518 256.451L802.579 259.7L788.7 271.813L787.179 267.153Z" fill="#245111" fill-opacity="0.15"/>
<path d="M840.657 624.133L858.922 632.912L858.248 640.322L834.339 627.294L834.8 622.218L840.657 624.133ZM860.086 620.103L840.527 625.562L834.429 626.302L834.893 621.196L860.757 612.721L860.086 620.103ZM900.976 630.791L882.411 622.073L883.08 614.721L907.426 627.789L906.96 632.924L900.976 630.791ZM881.234 635.028L901.114 629.598L907.336 628.781L906.872 633.887L880.568 642.351L881.234 635.028Z" fill="#245111" fill-opacity="0.25"/>
<path d="M961.361 377.001L970.297 381.778L969.802 385.465L958.137 378.446L958.476 375.919L961.361 377.001ZM971.152 375.404L961.265 377.713L958.203 377.952L958.544 375.411L971.645 371.731L971.152 375.404ZM991.35 381.618L982.263 376.866L982.754 373.207L994.636 380.256L994.293 382.811L991.35 381.618ZM981.397 383.312L991.444 381.025L994.57 380.75L994.229 383.29L980.908 386.956L981.397 383.312Z" fill="#245111" fill-opacity="0.15"/>
<path d="M1227.71 483.014L1246.71 490.05L1246.74 497.492L1221.72 486.751L1221.7 481.653L1227.71 483.014ZM1246.68 477.189L1227.71 484.449L1221.71 485.755L1221.7 480.628L1246.66 469.777L1246.68 477.189ZM1288.39 484.016L1269.09 477.068L1269.07 469.685L1294.53 480.425L1294.54 485.581L1288.39 484.016ZM1269.13 490.076L1288.41 482.815L1294.53 481.421L1294.55 486.548L1269.15 497.429L1269.13 490.076Z" fill="#245111" fill-opacity="0.2"/>
<path d="M1259.27 637.627L1265.82 639.299L1266.08 641.765L1257.41 639.075L1257.23 637.386L1259.27 637.627ZM1265.36 635.037L1259.32 638.103L1257.38 638.745L1257.2 637.046L1265.09 632.58L1265.36 635.037ZM1279.42 635.849L1272.78 634.217L1272.52 631.77L1281.33 634.444L1281.52 636.153L1279.42 635.849ZM1273.25 638.528L1279.39 635.45L1281.37 634.774L1281.55 636.474L1273.51 640.965L1273.25 638.528Z" fill="#245111" fill-opacity="0.15"/>
<path d="M1300.38 198.542L1313.42 202.07L1313.88 207.009L1296.62 201.384L1296.3 198.001L1300.38 198.542ZM1312.62 193.533L1300.46 199.495L1296.56 200.723L1296.24 197.32L1312.16 188.613L1312.62 193.533ZM1340.72 195.555L1327.49 192.103L1327.03 187.203L1344.58 192.8L1344.9 196.223L1340.72 195.555ZM1328.3 200.737L1340.67 194.755L1344.65 193.461L1344.96 196.865L1328.75 205.618L1328.3 200.737Z" fill="#245111" fill-opacity="0.3"/>
<path d="M1064.66 65.8993L1082.86 74.8162L1082.13 82.2217L1058.32 69.0132L1058.82 63.9401L1064.66 65.8993ZM1084.12 62.0168L1064.52 67.3279L1058.42 68.022L1058.92 62.9197L1084.85 54.6404L1084.12 62.0168ZM1124.93 73.014L1106.43 64.1558L1107.16 56.8085L1131.4 70.0601L1130.9 75.1915L1124.93 73.014ZM1105.16 77.1009L1125.08 71.8214L1131.31 71.0514L1130.8 76.1537L1104.44 84.419L1105.16 77.1009Z" fill="#245111" fill-opacity="0.25"/>
<path d="M-11.2949 554.928L7.68945 562.018V569.459L-17.3008 558.648V553.551L-11.2949 554.928ZM7.68945 549.156L-11.2949 556.363L-17.3008 557.652V552.525L7.68945 541.744V549.156ZM49.3789 556.1L30.1016 549.098V541.715L55.5312 552.525V557.682L49.3789 556.1ZM30.1016 562.105L49.4082 554.898L55.5312 553.521V558.648L30.1016 569.459V562.105Z" fill="#245111" fill-opacity="0.15"/>
</g>
<defs>
<clipPath id="clip0_127_1463">
<rect width="1336" height="692" fill="white"/>
</clipPath>
</defs>
</svg>
