<svg width="40" height="40" viewBox="0 0 40 40" fill="none" xmlns="http://www.w3.org/2000/svg">
<rect x="4.5" y="4.5" width="31" height="31" rx="15.5" fill="#182114"/>
<rect x="4.5" y="4.5" width="31" height="31" rx="15.5" stroke="#182114"/>
<path d="M19.8571 22.0001C17.7143 22.0001 16 20.143 16 17.7144C16 15.2859 17.7143 13.4287 19.8571 13.4287C22 13.4287 23.7143 15.2859 23.7143 17.7144C23.7143 20.143 22 22.0001 19.8571 22.0001ZM19.8571 14.8573C18.5714 14.8573 17.4286 16.143 17.4286 17.7144C17.4286 19.2859 18.4286 20.5716 19.8571 20.5716C21.2857 20.5716 22.2857 19.2859 22.2857 17.7144C22.2857 16.143 21.1429 14.8573 19.8571 14.8573Z" fill="white"/>
<path d="M21.4285 20.1429H21.7142C24 20.1429 25.8571 22.0001 25.8571 24.2858V27.2858C25.8571 27.7144 25.5714 28.0001 25.1428 28.0001C24.7142 28.0001 24.4285 27.7144 24.4285 27.2858V24.2858C24.4285 22.8572 23.1428 21.5715 21.7142 21.5715H21.4285V20.1429Z" fill="white"/>
<path d="M18.2857 21.5715H18C16.5714 21.5715 15.2857 22.8572 15.2857 24.2858V27.2858C15.2857 27.7144 15 28.0001 14.5714 28.0001C14.1428 28.0001 13.8571 27.7144 13.8571 27.2858V24.2858C13.8571 22.0001 15.7143 20.1429 18 20.1429H18.2857V21.5715Z" fill="white"/>
<path d="M27.7143 19.1429C26 19.1429 24.4286 17.5714 24.4286 15.5714C24.4286 13.5714 25.8572 12 27.7143 12C29.5714 12 31 13.5714 31 15.5714C31 17.5714 29.4286 19.1429 27.7143 19.1429ZM27.7143 13.4286C26.7143 13.4286 25.8572 14.4286 25.8572 15.5714C25.8572 16.7143 26.7143 17.7143 27.7143 17.7143C28.7143 17.7143 29.5714 16.7143 29.5714 15.5714C29.5714 14.4286 28.7143 13.4286 27.7143 13.4286Z" fill="white"/>
<path d="M29 17.4285H29.2857C31.1429 17.4285 32.7143 18.9999 32.7143 20.857V23.2856C32.7143 23.7142 32.4286 23.9999 32 23.9999C31.5714 23.9999 31.2857 23.7142 31.2857 23.2856V20.857C31.2857 19.7142 30.4286 18.857 29.2857 18.857H29V17.4285Z" fill="white"/>
<path d="M26.4286 18.857H26.1429C25 18.857 24.1429 19.7142 24.1429 20.857C24.1429 21.2856 23.8572 21.5713 23.4286 21.5713C23 21.5713 22.7143 21.2856 22.7143 20.857C22.7143 18.9999 24.2857 17.4285 26.1429 17.4285H26.4286V18.857Z" fill="white"/>
<path d="M12 19.1429C10.2857 19.1429 8.71429 17.5714 8.71429 15.5714C8.71429 13.5714 10.1429 12 12 12C13.8572 12 15.2857 13.5714 15.2857 15.5714C15.2857 17.5714 13.7143 19.1429 12 19.1429ZM12 13.4286C11 13.4286 10.1429 14.4286 10.1429 15.5714C10.1429 16.7143 11 17.7143 12 17.7143C13 17.7143 13.8572 16.7143 13.8572 15.5714C13.8572 14.4286 13 13.4286 12 13.4286Z" fill="white"/>
<path d="M13.2857 17.4285H13.5714C15.4286 17.4285 17 18.9999 17 20.857C17 21.2856 16.7143 21.5713 16.2857 21.5713C15.8571 21.5713 15.5714 21.2856 15.5714 20.857C15.5714 19.7142 14.7143 18.857 13.5714 18.857H13.2857V17.4285Z" fill="white"/>
<path d="M10.7143 18.857H10.4286C9.28571 18.857 8.42857 19.7142 8.42857 20.857V23.2856C8.42857 23.7142 8.14286 23.9999 7.71429 23.9999C7.28571 23.9999 7 23.7142 7 23.2856V20.857C7 18.9999 8.57143 17.4285 10.4286 17.4285H10.7143V18.857Z" fill="white"/>
<circle cx="20" cy="20" r="19" stroke="#182114" stroke-width="2"/>
</svg>
