<svg width="40" height="40" viewBox="0 0 40 40" fill="none" xmlns="http://www.w3.org/2000/svg">
<rect x="4.5" y="4.5" width="31" height="31" rx="15.5" fill="#182114"/>
<rect x="4.5" y="4.5" width="31" height="31" rx="15.5" stroke="#182114"/>
<path d="M20 8C26.6274 8 32 13.3726 32 20C32 26.6274 26.6274 32 20 32C13.3726 32 8 26.6274 8 20C8 13.3726 13.3726 8 20 8ZM20.7506 9.52642L20.75 13.25H19.25L19.2501 9.52637C14.0488 9.8934 9.8934 14.0488 9.52637 19.2501L13.25 19.25V20.75L9.52642 20.7506C9.8938 25.9516 14.049 30.1066 19.2501 30.4736L19.25 26.75H20.75L20.7506 30.4736C25.9514 30.1062 30.1062 25.9514 30.4736 20.7506L26.75 20.75V19.25L30.4736 19.2501C30.1066 14.049 25.9516 9.8938 20.7506 9.52642ZM20 16.25C22.0711 16.25 23.75 17.9289 23.75 20C23.75 22.0711 22.0711 23.75 20 23.75C17.9289 23.75 16.25 22.0711 16.25 20C16.25 17.9289 17.9289 16.25 20 16.25ZM20 17.75C18.7574 17.75 17.75 18.7574 17.75 20C17.75 21.2426 18.7574 22.25 20 22.25C21.2426 22.25 22.25 21.2426 22.25 20C22.25 18.7574 21.2426 17.75 20 17.75Z" fill="white"/>
<circle cx="20" cy="20" r="19" stroke="#182114" stroke-width="2"/>
</svg>
