<svg width="12" height="10" viewBox="0 0 12 10" fill="none" xmlns="http://www.w3.org/2000/svg">
<g clip-path="url(#clip0_190_179)">
<path fill-rule="evenodd" clip-rule="evenodd" d="M10.3636 0.600098C11.2674 0.600098 12 1.33883 12 2.2501V7.7501C12 8.66139 11.2674 9.4001 10.3636 9.4001H1.63636C0.732627 9.4001 0 8.66139 0 7.7501V2.2501C0 1.33883 0.732627 0.600098 1.63636 0.600098H10.3636ZM9.95613 1.7001H2.04392L5.66204 4.58028C5.8602 4.73808 6.1398 4.73808 6.33802 4.58028L9.95613 1.7001ZM1.09091 2.34294V7.7501C1.09091 8.05386 1.33512 8.3001 1.63636 8.3001H10.3636C10.6649 8.3001 10.9091 8.05386 10.9091 7.7501V2.34295L7.01395 5.44367C6.41945 5.91695 5.58055 5.91695 4.98605 5.44367L1.09091 2.34294Z" fill="#151515"/>
</g>
<defs>
<clipPath id="clip0_190_179">
<rect width="12" height="8.8" fill="white" transform="translate(0 0.600098)"/>
</clipPath>
</defs>
</svg>
