<svg width="10" height="12" viewBox="0 0 10 12" fill="none" xmlns="http://www.w3.org/2000/svg">
<path d="M1.30466 0.508515C0.498144 1.04326 0.339706 2.7148 0.644202 4.07715C0.881342 5.13807 1.38552 6.56122 2.23569 7.90133C3.03546 9.16203 4.15127 10.2925 5.00208 10.9465C6.09463 11.7863 7.65212 12.3201 8.45863 11.7854C8.86646 11.515 9.47235 10.7762 9.5 10.6437C9.5 10.6437 9.1447 10.0836 9.06673 9.96068L7.87525 8.08252C7.78671 7.94295 7.23146 8.07052 6.94938 8.23386C6.56889 8.45426 6.21848 9.04564 6.21848 9.04564C5.95758 9.19974 5.73906 9.0462 5.28248 8.83137C4.72133 8.56742 4.09042 7.74729 3.58829 7.00449C3.12966 6.23286 2.65449 5.30945 2.64761 4.67799C2.64195 4.1642 2.59394 3.89762 2.83798 3.71692C2.83798 3.71692 3.50906 3.631 3.86108 3.36573C4.12199 3.16904 4.46236 2.70278 4.37383 2.56318L3.18235 0.685046C3.10438 0.56214 2.74908 0.00207843 2.74908 0.00207843C2.61939 -0.0261637 1.71248 0.238117 1.30466 0.508515Z" fill="black"/>
</svg>
