<svg width="40" height="40" viewBox="0 0 40 40" fill="none" xmlns="http://www.w3.org/2000/svg">
<rect x="4.5" y="4.5" width="31" height="31" rx="15.5" fill="#182114"/>
<rect x="4.5" y="4.5" width="31" height="31" rx="15.5" stroke="#182114"/>
<path d="M27 12.6364C27.2184 12.6364 27.4279 12.5502 27.5823 12.3967C27.7368 12.2433 27.8235 12.0352 27.8235 11.8182C27.8235 11.6012 27.7368 11.3931 27.5823 11.2396C27.4279 11.0862 27.2184 11 27 11H13.8235C13.6051 11 13.3956 11.0862 13.2412 11.2396C13.0868 11.3931 13 11.6012 13 11.8182C13 12.0352 13.0868 12.2433 13.2412 12.3967C13.3956 12.5502 13.6051 12.6364 13.8235 12.6364H14.6874C14.8076 14.1385 15.2993 17.3409 17.3178 19.1818C15.1889 21.2363 14.7558 25.5096 14.6693 27.3636H13.8235C13.6051 27.3636 13.3956 27.4498 13.2412 27.6033C13.0868 27.7567 13 27.9648 13 28.1818C13 28.3988 13.0868 28.6069 13.2412 28.7604C13.3956 28.9138 13.6051 29 13.8235 29H27C27.2184 29 27.4279 28.9138 27.5823 28.7604C27.7368 28.6069 27.8235 28.3988 27.8235 28.1818C27.8235 27.9648 27.7368 27.7567 27.5823 27.6033C27.4279 27.4498 27.2184 27.3636 27 27.3636H26.1542C26.0678 25.5113 25.6346 21.2379 23.5058 19.1818C25.5242 17.3393 26.0159 14.1369 26.1361 12.6364H27ZM21.7129 18.4667C21.5821 18.5389 21.4735 18.6452 21.3989 18.774C21.3243 18.9029 21.2864 19.0496 21.2894 19.1982C21.2924 19.3469 21.336 19.4919 21.4157 19.6177C21.4955 19.7436 21.6082 19.8455 21.7418 19.9125C23.7487 20.9172 24.3771 25.076 24.5047 27.3636H16.3188C16.4432 25.0727 17.0748 20.9172 19.0818 19.9125C19.2154 19.8455 19.3281 19.7436 19.4078 19.6177C19.4875 19.4919 19.5312 19.3469 19.5341 19.1982C19.5371 19.0496 19.4992 18.9029 19.4246 18.774C19.35 18.6452 19.2414 18.5389 19.1106 18.4667C17.0196 17.3139 16.4811 14.1451 16.3419 12.6364H24.4816C24.3425 14.1451 23.8039 17.3139 21.7129 18.4667ZM20.4118 20.8182C20.4118 20.8182 22.8824 22.7818 22.8824 23.7636V26.5455H17.9412V23.7636C17.9412 22.7818 20.4118 20.8182 20.4118 20.8182Z" fill="white"/>
<circle cx="20" cy="20" r="19" stroke="#182114" stroke-width="2"/>
</svg>
