<?xml version="1.0" standalone="no"?>
<!DOCTYPE svg PUBLIC "-//W3C//DTD SVG 20010904//EN"
 "http://www.w3.org/TR/2001/REC-SVG-20010904/DTD/svg10.dtd">
<svg version="1.0" xmlns="http://www.w3.org/2000/svg"
 width="192.000000pt" height="192.000000pt" viewBox="0 0 192.000000 192.000000"
 preserveAspectRatio="xMidYMid meet">
<metadata>
Created by potrace 1.14, written by Peter Selinger 2001-2017
</metadata>
<g transform="translate(0.000000,192.000000) scale(0.100000,-0.100000)"
fill="#000000" stroke="none">
<path d="M984 1720 c-3 -2 -15 -5 -27 -6 -12 0 -35 -4 -52 -8 -16 -3 -39 -8
-50 -10 -11 -2 -40 -9 -65 -16 -25 -7 -49 -13 -55 -15 -5 -1 -17 -5 -25 -8 -8
-3 -40 -14 -70 -25 -58 -21 -171 -73 -205 -94 -124 -79 -223 -164 -300 -259
-64 -77 -120 -209 -124 -294 -2 -27 -5 -53 -7 -57 -3 -5 0 -8 5 -8 6 0 11 -6
11 -14 0 -12 28 -31 35 -24 2 2 6 19 9 38 8 54 37 144 48 151 5 3 11 12 13 20
9 40 18 58 26 53 5 -3 9 0 9 6 0 37 159 200 274 281 59 42 214 129 241 135 6
2 42 14 80 29 39 14 70 25 70 24 0 0 20 4 45 11 25 7 56 14 70 16 14 2 45 7
70 11 56 9 279 10 340 1 62 -9 167 -46 215 -76 52 -33 125 -102 125 -119 0 -7
3 -13 8 -13 7 0 21 -27 41 -81 5 -14 12 -50 16 -80 4 -30 9 -57 12 -61 2 -5 1
-8 -4 -8 -4 0 -8 -19 -9 -43 -1 -82 -35 -209 -70 -263 -9 -12 -15 -26 -14 -29
2 -8 -72 -129 -82 -133 -4 -2 -8 -10 -8 -18 0 -8 -4 -14 -9 -14 -5 0 -12 -8
-15 -18 -15 -46 -300 -312 -335 -312 -6 0 -11 -4 -11 -8 0 -16 -178 -97 -228
-105 -17 -3 -35 -8 -40 -11 -5 -3 -36 -8 -68 -12 -219 -24 -376 11 -472 106
-48 47 -91 122 -96 165 -1 11 -5 25 -8 30 -14 23 1 183 23 250 21 62 82 183
113 223 14 18 165 170 186 187 31 26 118 73 124 68 3 -4 6 -2 6 4 0 11 40 29
137 62 118 40 225 43 306 10 65 -27 34 25 -37 62 -50 27 -88 33 -191 33 -106
0 -155 -8 -267 -45 -218 -72 -371 -194 -465 -370 -16 -31 -33 -67 -38 -80 -4
-13 -8 -26 -9 -29 -10 -25 -27 -124 -23 -135 3 -7 3 -16 0 -19 -5 -5 -8 -71
-3 -78 3 -5 9 -42 13 -73 2 -16 9 -40 16 -53 6 -12 9 -22 6 -22 -3 0 2 -11 11
-24 8 -14 16 -29 16 -33 3 -32 115 -161 173 -198 66 -43 151 -76 240 -93 39
-8 239 -8 290 0 22 3 63 11 90 18 28 6 57 13 65 15 35 8 145 51 148 58 2 4 9
7 15 7 17 0 119 53 172 89 26 17 50 31 55 31 4 0 10 3 12 8 2 4 23 23 48 42
65 50 206 194 212 218 1 4 10 16 20 26 46 49 113 207 134 316 12 60 10 203 -4
250 -68 238 -283 396 -592 436 -55 7 -310 11 -316 4z"/>
</g>
</svg>
